<svg width="16" height="26" viewBox="0 0 16 26" fill="none" xmlns="http://www.w3.org/2000/svg">
<path d="M16 7.94182C16 12.6247 12.3636 13.352 12.3636 17.7164C12.3636 19.9695 10.0924 20.1593 8.36364 20.1593C6.87055 20.1593 3.57382 19.5927 3.57382 17.7149C3.57382 13.3527 0 12.6255 0 7.94182C0 3.55564 3.84364 0 8.06036 0C12.2785 0 16 3.55564 16 7.94182Z" fill="#FFD983"/>
<path d="M11.0303 23.5343C11.0303 24.1365 9.4056 25.3525 7.99978 25.3525C6.59397 25.3525 4.96924 24.1365 4.96924 23.5343C4.96924 22.9321 6.59324 23.1706 7.99978 23.1706C9.4056 23.1706 11.0303 22.9321 11.0303 23.5343Z" fill="#CCD6DD"/>
<path d="M11.4233 7.38417C11.139 7.09981 10.6793 7.09981 10.395 7.38417L8.00007 9.77908L5.60516 7.38417C5.3208 7.09981 4.86116 7.09981 4.5768 7.38417C4.29243 7.66853 4.29243 8.12817 4.5768 8.41253L7.2728 11.1085V18.8074C7.2728 19.2096 7.59862 19.5347 8.00007 19.5347C8.40153 19.5347 8.72734 19.2096 8.72734 18.8074V11.1085L11.4233 8.41253C11.7077 8.12817 11.7077 7.66853 11.4233 7.38417Z" fill="#FFCC4D"/>
<path d="M12.3633 22.4437C12.3633 23.2466 11.7116 23.8983 10.9087 23.8983H5.09053C4.28762 23.8983 3.63599 23.2466 3.63599 22.4437V18.0801H12.3633V22.4437Z" fill="#99AAB5"/>
<path d="M3.63559 23.1712C3.2865 23.1712 2.97814 22.9188 2.91923 22.5632C2.85305 22.1676 3.12068 21.7923 3.51705 21.7268L12.2443 20.2723C12.64 20.201 13.0152 20.4737 13.0807 20.8701C13.1469 21.2657 12.8792 21.641 12.4829 21.7065L3.75559 23.161C3.71559 23.1683 3.67487 23.1712 3.63559 23.1712ZM3.63559 20.2621C3.2865 20.2621 2.97814 20.0097 2.91923 19.6541C2.85305 19.2585 3.12068 18.8832 3.51705 18.8177L12.2443 17.3632C12.64 17.2927 13.0152 17.5647 13.0807 17.961C13.1469 18.3567 12.8792 18.7319 12.4829 18.7974L3.75559 20.2519C3.71559 20.2592 3.67487 20.2621 3.63559 20.2621Z" fill="#CCD6DD"/>
</svg>
