<svg width="21" height="25" viewBox="0 0 21 25" fill="none" xmlns="http://www.w3.org/2000/svg">
<path d="M18.9789 24.5004V22.0849C18.9789 19.7977 16.4357 18.2891 14.1479 18.2891H5.86616C3.57971 18.2891 1.03516 19.7977 1.03516 22.0849V24.5004H18.9789Z" fill="#784630"/>
<path d="M3.17502 22.665C3.34825 22.665 3.45177 24.5001 3.45177 24.5001H2.79199C2.79199 24.5001 2.92519 22.665 3.17502 22.665ZM5.24545 22.665C5.41868 22.665 5.5222 24.5001 5.5222 24.5001H4.86173C4.86242 24.5001 4.99562 22.665 5.24545 22.665ZM14.8005 22.665C14.628 22.665 14.5244 24.5001 14.5244 24.5001H15.1835C15.1835 24.5001 15.0503 22.665 14.8005 22.665ZM16.8709 22.665C16.6984 22.665 16.5949 24.5001 16.5949 24.5001H17.2539C17.2539 24.5001 17.1208 22.665 16.8709 22.665Z" fill="#4D371E"/>
<path d="M10.0075 23.4037C12.8219 22.0593 13.8861 18.2891 13.8861 18.2891H6.12891C6.12891 18.2891 7.19311 22.0593 10.0075 23.4037Z" fill="#9266CC"/>
<path d="M6.55664 18.2891H13.3718C13.3718 18.2891 12.505 20.7046 9.96388 20.7046C7.42277 20.7046 6.55664 18.2891 6.55664 18.2891Z" fill="#744EAA"/>
<path d="M9.96924 3.15332C12.803 3.15332 17.5249 4.57018 17.5249 10.709C17.5249 16.8478 17.5249 18.2647 16.1081 18.2647C14.6905 18.2647 12.8023 16.8478 9.96855 16.8478C7.13552 16.8478 5.28662 18.2647 3.82973 18.2647C2.25137 18.2647 2.41286 12.5979 2.41286 10.709C2.41424 4.57018 7.13621 3.15332 9.96924 3.15332Z" fill="#FFAC33"/>
<path d="M7.47363 18.3027C7.47363 19.3241 8.97262 19.6692 10.0078 19.6692C11.0431 19.6692 12.5338 19.3241 12.5338 18.3027V16.0908H7.47363V18.3027Z" fill="#FFDC5D"/>
<path d="M7.46875 17.0321C8.17477 17.8292 9.04987 18.0453 10.0009 18.0453C10.9526 18.0453 11.8277 17.8299 12.5337 17.0321V15.0059H7.46875V17.0321Z" fill="#F9CA55"/>
<path d="M4.30273 10.5019C4.30273 6.4756 6.8397 3.21191 9.96881 3.21191C13.0979 3.21191 15.6356 6.4756 15.6356 10.5019C15.6356 14.5275 13.0979 17.6007 9.96881 17.6007C6.8397 17.6007 4.30273 14.5282 4.30273 10.5019Z" fill="#FFDC5D"/>
<path d="M9.969 15.9028C8.86132 15.9028 8.28091 15.3548 8.2188 15.292C8.03384 15.1077 8.03384 14.8089 8.2188 14.6246C8.40238 14.4417 8.69638 14.4404 8.88133 14.6198C8.90549 14.6419 9.26298 14.9587 9.969 14.9587C10.6861 14.9587 11.0436 14.6322 11.0574 14.6191C11.2458 14.4424 11.5425 14.4479 11.722 14.6329C11.9014 14.8186 11.9014 15.1098 11.7192 15.292C11.6578 15.3548 11.0781 15.9028 9.969 15.9028Z" fill="#DF1F32"/>
<path d="M7.66589 11.9989C7.34498 11.9989 7.08203 11.736 7.08203 11.4151V10.8319C7.08203 10.511 7.34498 10.248 7.66589 10.248C7.98681 10.248 8.25044 10.511 8.25044 10.8319V11.4151C8.25044 11.736 7.98681 11.9989 7.66589 11.9989ZM12.3347 11.9989C12.0138 11.9989 11.7509 11.736 11.7509 11.4151V10.8319C11.7509 10.511 12.0138 10.248 12.3347 10.248C12.6556 10.248 12.9186 10.511 12.9186 10.8319V11.4151C12.9186 11.736 12.6556 11.9989 12.3347 11.9989Z" fill="#662113"/>
<path d="M10.5849 13.8034H9.41791C9.2571 13.8034 9.12598 13.6723 9.12598 13.5115V13.4059C9.12598 13.2451 9.25641 13.1133 9.41791 13.1133H10.5849C10.7451 13.1133 10.8769 13.2444 10.8769 13.4059V13.5115C10.8769 13.6723 10.7451 13.8034 10.5849 13.8034Z" fill="#C1694F"/>
<path d="M2.91667 12.7682C2.90217 12.0781 2.8863 12.6136 2.8863 12.4473C2.8863 10.0856 4.30316 12.7882 4.30316 11.1063C4.30316 9.42308 5.24728 9.25469 6.1914 8.31057C6.66414 7.83782 7.60826 6.91234 7.60826 6.91234C7.60826 6.91234 9.96924 8.33887 11.8582 8.33887C13.7464 8.33887 15.636 9.28782 15.636 11.1767C15.636 13.0657 17.0529 10.0836 17.0529 12.4445C17.0529 12.6129 17.037 12.0781 17.0253 12.7682H17.5208C17.5256 11.3879 17.5256 11.4404 17.5256 10.5584C17.5256 4.41954 12.803 2.13379 9.96993 2.13379C7.13689 2.13379 2.41493 4.38159 2.41493 10.5204C2.41493 11.0677 2.40113 11.3879 2.42045 12.7682H2.91667Z" fill="#FFAC33"/>
<path d="M5.48299 10.653C5.48299 11.6523 4.97643 12.4626 4.35185 12.4626C3.72727 12.4626 3.2207 11.6523 3.2207 10.653C3.2207 9.65369 3.72727 8.84277 4.35185 8.84277C4.97643 8.84208 5.48299 9.653 5.48299 10.653ZM16.7938 10.653C16.7938 11.6523 16.2879 12.4626 15.6626 12.4626C15.038 12.4626 14.5315 11.6523 14.5315 10.653C14.5315 9.65369 15.0373 8.84277 15.6626 8.84277C16.2879 8.84208 16.7938 9.653 16.7938 10.653Z" fill="#FFDC5D"/>
<path d="M19.741 2.07819L10.079 0.00776411C10.0321 -0.00258804 9.9824 -0.00258804 9.93478 0.00776411L0.27277 2.07819C0.118178 2.11132 0.00568439 2.2459 0.000163243 2.40394C-0.00466776 2.56199 0.0981636 2.70346 0.250685 2.74763L3.66275 3.72281C3.53025 4.13344 3.45088 4.60757 3.45088 5.17625C3.45088 6.75668 5.718 7.59175 10.0072 7.59175C14.2965 7.59175 16.5636 6.75668 16.5636 5.17625C16.5636 4.60757 16.4842 4.13344 16.3517 3.72281L19.7645 2.74763C19.917 2.70415 20.0198 2.56199 20.0143 2.40394C20.0088 2.2459 19.8963 2.11132 19.741 2.07819Z" fill="#784630"/>
<path d="M20.0006 2.32136C19.9482 2.13847 19.7591 2.03357 19.5741 2.08395L10.0074 4.81761L0.4399 2.08395C0.259083 2.03357 0.0658424 2.13778 0.0133915 2.32136C-0.0390594 2.50425 0.0672226 2.69542 0.250801 2.74787L9.91281 5.50844C9.94387 5.51741 9.97561 5.52155 10.0067 5.52155C10.0377 5.52155 10.0702 5.51741 10.1012 5.50844L19.7632 2.74787C19.9475 2.69542 20.0538 2.50425 20.0006 2.32136Z" fill="#4D371E"/>
<path d="M9.97803 2.07183L1.69631 2.76198C1.67837 2.76336 1.38023 2.80132 1.38023 3.10567V7.31209C1.17388 7.44046 1.03516 7.8228 1.03516 8.97189C1.03516 10.6869 1.34434 12.0775 1.7253 12.0775C2.10626 12.0775 2.41544 10.6869 2.41544 8.97189C2.41544 7.8228 2.27672 7.44046 2.07037 7.31209V3.42314L10.036 2.75922C10.2251 2.74334 10.3666 2.57702 10.3507 2.38654C10.3348 2.19675 10.1658 2.05389 9.97803 2.07183Z" fill="#FFCC4D"/>
</svg>
