<svg width="22" height="22" viewBox="0 0 22 22" fill="none" xmlns="http://www.w3.org/2000/svg">
<path d="M2.97416 5.57113C3.54927 5.16916 4.41623 5.24625 4.93261 5.67269L4.34036 4.81185C3.86375 4.13211 4.03445 3.3967 4.7148 2.91948C5.39515 2.44409 7.32301 3.72219 7.32301 3.72219C6.84212 3.03572 6.93205 2.16571 7.61852 1.6842C8.30499 1.20453 9.2521 1.37034 9.73299 2.05803L16.1082 11.0641L15.2957 18.9413L8.51485 16.4683L2.60033 7.69905C2.11516 7.0083 2.2828 6.05569 2.97416 5.57113Z" fill="#EF9645"/>
<path d="M1.64903 10.581C1.64903 10.581 0.956447 9.57145 1.96657 8.87948C2.97547 8.1875 3.66744 9.1964 3.66744 9.1964L6.88014 13.8818C6.99088 13.697 7.11202 13.5147 7.24723 13.3348L2.78825 6.83292C2.78825 6.83292 2.09628 5.82402 3.10579 5.13205C4.11469 4.44007 4.80666 5.44897 4.80666 5.44897L9.00072 11.5654C9.15674 11.4381 9.31642 11.3103 9.481 11.1848L4.61883 4.09317C4.61883 4.09317 3.92686 3.08427 4.93637 2.3923C5.94527 1.70032 6.63724 2.70922 6.63724 2.70922L11.4994 9.79966C11.6781 9.69014 11.8549 9.59531 12.0323 9.49497L7.48768 2.86768C7.48768 2.86768 6.7957 1.85878 7.8046 1.16681C8.8135 0.474837 9.50548 1.48374 9.50548 1.48374L14.3107 8.49158L15.0413 9.55738C12.014 11.6339 11.7258 15.5404 13.4554 18.063C13.8011 18.5677 14.3059 18.222 14.3059 18.222C12.2299 15.1941 12.8638 11.7918 15.8917 9.71584L14.9991 5.24829C14.9991 5.24829 14.6656 4.07114 15.8421 3.73709C17.0193 3.40364 17.3534 4.58079 17.3534 4.58079L18.3843 7.64237C18.793 8.85623 19.228 10.0658 19.8037 11.2099C21.4293 14.4404 20.4584 18.4551 17.3931 20.558C14.0495 22.8505 9.47856 21.9982 7.18544 18.6552L1.64903 10.581Z" fill="#FFDC5D"/>
<path d="M7.342 19.5785C4.8947 19.5785 2.42171 17.1055 2.42171 14.6582C2.42171 14.3199 2.17392 14.0464 1.83558 14.0464C1.49724 14.0464 1.19806 14.3199 1.19806 14.6582C1.19806 18.3292 3.67106 20.8022 7.342 20.8022C7.68034 20.8022 7.95383 20.503 7.95383 20.1646C7.95383 19.8263 7.68034 19.5785 7.342 19.5785Z" fill="#5DADEC"/>
<path d="M4.28277 20.7766C2.4473 20.7766 1.22365 19.553 1.22365 17.7175C1.22365 17.3792 0.950164 17.1057 0.611825 17.1057C0.273486 17.1057 0 17.3792 0 17.7175C0 20.1648 1.83547 22.0003 4.28277 22.0003C4.62111 22.0003 4.8946 21.7268 4.8946 21.3885C4.8946 21.0501 4.62111 20.7766 4.28277 20.7766ZM14.6838 1.19824C14.3461 1.19824 14.072 1.47234 14.072 1.81007C14.072 2.14779 14.3461 2.42189 14.6838 2.42189C17.1311 2.42189 19.5784 4.61773 19.5784 7.31649C19.5784 7.65422 19.8525 7.92832 20.1902 7.92832C20.528 7.92832 20.802 7.65422 20.802 7.31649C20.802 3.94289 18.3547 1.19824 14.6838 1.19824Z" fill="#5DADEC"/>
<path d="M17.7428 0C17.4051 0 17.131 0.248401 17.131 0.586128C17.131 0.923856 17.4051 1.22365 17.7428 1.22365C19.5783 1.22365 20.7762 2.58496 20.7762 4.25708C20.7762 4.59481 21.0754 4.8689 21.4138 4.8689C21.7521 4.8689 21.9999 4.59481 21.9999 4.25708C21.9999 1.90951 20.1901 0 17.7428 0Z" fill="#5DADEC"/>
</svg>
