<svg width="190" height="48" viewBox="0 0 190 48" fill="none" xmlns="http://www.w3.org/2000/svg">
<path d="M44.296 1.2V46H29.448V12.912H15.816V46H0.968V1.2H44.296ZM75.002 47.024C70.1807 47.024 65.85 46.0213 62.01 44.016C58.17 42.0107 55.162 39.2373 52.986 35.696C50.81 32.112 49.722 28.08 49.722 23.6C49.722 19.12 50.81 15.1093 52.986 11.568C55.162 7.984 58.17 5.18933 62.01 3.184C65.85 1.17867 70.1807 0.175999 75.002 0.175999C79.8233 0.175999 84.154 1.17867 87.994 3.184C91.834 5.18933 94.842 7.984 97.018 11.568C99.194 15.1093 100.282 19.12 100.282 23.6C100.282 28.08 99.194 32.112 97.018 35.696C94.842 39.2373 91.834 42.0107 87.994 44.016C84.154 46.0213 79.8233 47.024 75.002 47.024ZM75.002 34.8C76.8793 34.8 78.5647 34.352 80.058 33.456C81.594 32.5173 82.81 31.216 83.706 29.552C84.602 27.8453 85.05 25.8613 85.05 23.6C85.05 21.3387 84.602 19.376 83.706 17.712C82.81 16.0053 81.594 14.704 80.058 13.808C78.5647 12.8693 76.8793 12.4 75.002 12.4C73.1247 12.4 71.418 12.8693 69.882 13.808C68.3887 14.704 67.194 16.0053 66.298 17.712C65.402 19.376 64.954 21.3387 64.954 23.6C64.954 25.8613 65.402 27.8453 66.298 29.552C67.194 31.216 68.3887 32.5173 69.882 33.456C71.418 34.352 73.1247 34.8 75.002 34.8ZM127.286 1.2C131.425 1.2 135.03 1.88266 138.102 3.248C141.174 4.61333 143.542 6.576 145.206 9.136C146.87 11.696 147.702 14.6827 147.702 18.096C147.702 21.5093 146.87 24.496 145.206 27.056C143.542 29.616 141.174 31.5787 138.102 32.944C135.03 34.3093 131.425 34.992 127.286 34.992H120.822V46H105.718V1.2H127.286ZM126.326 23.344C128.374 23.344 129.91 22.896 130.934 22C131.958 21.0613 132.47 19.76 132.47 18.096C132.47 16.432 131.958 15.152 130.934 14.256C129.91 13.3173 128.374 12.848 126.326 12.848H120.822V23.344H126.326ZM189.425 12.912H176.305V46H161.457V12.912H148.337V1.2H189.425V12.912Z" fill="white"/>
</svg>
