<svg width="192" height="90" viewBox="0 0 192 90" fill="none" xmlns="http://www.w3.org/2000/svg">
<path d="M77.08 58.96C72.56 58.96 68.5 58.02 64.9 56.14C61.3 54.26 58.48 51.66 56.44 48.34C54.4 44.98 53.38 41.2 53.38 37C53.38 32.8 54.4 29.04 56.44 25.72C58.48 22.36 61.3 19.74 64.9 17.86C68.5 15.98 72.56 15.04 77.08 15.04C81.6 15.04 85.66 15.98 89.26 17.86C92.86 19.74 95.68 22.36 97.72 25.72C99.76 29.04 100.78 32.8 100.78 37C100.78 41.2 99.76 44.98 97.72 48.34C95.68 51.66 92.86 54.26 89.26 56.14C85.66 58.02 81.6 58.96 77.08 58.96ZM77.08 47.5C78.84 47.5 80.42 47.08 81.82 46.24C83.26 45.36 84.4 44.14 85.24 42.58C86.08 40.98 86.5 39.12 86.5 37C86.5 34.88 86.08 33.04 85.24 31.48C84.4 29.88 83.26 28.66 81.82 27.82C80.42 26.94 78.84 26.5 77.08 26.5C75.32 26.5 73.72 26.94 72.28 27.82C70.88 28.66 69.76 29.88 68.92 31.48C68.08 33.04 67.66 34.88 67.66 37C67.66 39.12 68.08 40.98 68.92 42.58C69.76 44.14 70.88 45.36 72.28 46.24C73.72 47.08 75.32 47.5 77.08 47.5Z" fill="white"/>
<path d="M47.296 29.2V74H32.448V40.912H18.816V74H3.968V29.2H47.296Z" fill="white"/>
<path d="M128.536 29.2C132.675 29.2 136.28 29.8827 139.352 31.248C142.424 32.6133 144.792 34.576 146.456 37.136C148.12 39.696 148.952 42.6827 148.952 46.096C148.952 49.5093 148.12 52.496 146.456 55.056C144.792 57.616 142.424 59.5787 139.352 60.944C136.28 62.3093 132.675 62.992 128.536 62.992H122.072V74H106.968V29.2H128.536ZM127.576 51.344C129.624 51.344 131.16 50.896 132.184 50C133.208 49.0613 133.72 47.76 133.72 46.096C133.72 44.432 133.208 43.152 132.184 42.256C131.16 41.3173 129.624 40.848 127.576 40.848H122.072V51.344H127.576ZM190.675 40.912H177.555V74H162.707V40.912H149.587V29.2H190.675V40.912Z" fill="white"/>
<path d="M60 85C60 65.0001 96 64.9999 96 85" stroke="white" stroke-width="15"/>
</svg>
