<svg width="192" height="48" viewBox="0 0 192 48" fill="none" xmlns="http://www.w3.org/2000/svg">
<path d="M0.648 1.2H15.752V34.288H35.976V46H0.648V1.2ZM63.011 47.024C58.1897 47.024 53.859 46.0213 50.019 44.016C46.179 42.0107 43.171 39.2373 40.995 35.696C38.819 32.112 37.731 28.08 37.731 23.6C37.731 19.12 38.819 15.1093 40.995 11.568C43.171 7.984 46.179 5.18933 50.019 3.184C53.859 1.17867 58.1897 0.175999 63.011 0.175999C67.8323 0.175999 72.163 1.17867 76.003 3.184C79.843 5.18933 82.851 7.984 85.027 11.568C87.203 15.1093 88.291 19.12 88.291 23.6C88.291 28.08 87.203 32.112 85.027 35.696C82.851 39.2373 79.843 42.0107 76.003 44.016C72.163 46.0213 67.8323 47.024 63.011 47.024ZM63.011 34.8C64.8883 34.8 66.5737 34.352 68.067 33.456C69.603 32.5173 70.819 31.216 71.715 29.552C72.611 27.8453 73.059 25.8613 73.059 23.6C73.059 21.3387 72.611 19.376 71.715 17.712C70.819 16.0053 69.603 14.704 68.067 13.808C66.5737 12.8693 64.8883 12.4 63.011 12.4C61.1337 12.4 59.427 12.8693 57.891 13.808C56.3977 14.704 55.203 16.0053 54.307 17.712C53.411 19.376 52.963 21.3387 52.963 23.6C52.963 25.8613 53.411 27.8453 54.307 29.552C55.203 31.216 56.3977 32.5173 57.891 33.456C59.427 34.352 61.1337 34.8 63.011 34.8ZM123.405 22.384H136.525V41.328C133.88 43.1627 130.808 44.5707 127.309 45.552C123.81 46.5333 120.376 47.024 117.005 47.024C112.226 47.024 107.938 46.0427 104.141 44.08C100.344 42.0747 97.357 39.3013 95.181 35.76C93.0477 32.176 91.981 28.1227 91.981 23.6C91.981 19.0773 93.0477 15.0453 95.181 11.504C97.357 7.92 100.365 5.14666 104.205 3.184C108.088 1.17867 112.461 0.175999 117.325 0.175999C121.72 0.175999 125.645 0.922665 129.101 2.416C132.6 3.86666 135.501 6 137.805 8.816L128.141 17.328C125.325 14.0427 121.976 12.4 118.093 12.4C114.765 12.4 112.12 13.4027 110.157 15.408C108.194 17.4133 107.213 20.144 107.213 23.6C107.213 26.9707 108.173 29.68 110.093 31.728C112.056 33.776 114.658 34.8 117.901 34.8C119.821 34.8 121.656 34.4373 123.405 33.712V22.384ZM166.449 47.024C161.627 47.024 157.297 46.0213 153.457 44.016C149.617 42.0107 146.609 39.2373 144.433 35.696C142.257 32.112 141.169 28.08 141.169 23.6C141.169 19.12 142.257 15.1093 144.433 11.568C146.609 7.984 149.617 5.18933 153.457 3.184C157.297 1.17867 161.627 0.175999 166.449 0.175999C171.27 0.175999 175.601 1.17867 179.441 3.184C183.281 5.18933 186.289 7.984 188.465 11.568C190.641 15.1093 191.729 19.12 191.729 23.6C191.729 28.08 190.641 32.112 188.465 35.696C186.289 39.2373 183.281 42.0107 179.441 44.016C175.601 46.0213 171.27 47.024 166.449 47.024ZM166.449 34.8C168.326 34.8 170.011 34.352 171.505 33.456C173.041 32.5173 174.257 31.216 175.153 29.552C176.049 27.8453 176.497 25.8613 176.497 23.6C176.497 21.3387 176.049 19.376 175.153 17.712C174.257 16.0053 173.041 14.704 171.505 13.808C170.011 12.8693 168.326 12.4 166.449 12.4C164.571 12.4 162.865 12.8693 161.329 13.808C159.835 14.704 158.641 16.0053 157.745 17.712C156.849 19.376 156.401 21.3387 156.401 23.6C156.401 25.8613 156.849 27.8453 157.745 29.552C158.641 31.216 159.835 32.5173 161.329 33.456C162.865 34.352 164.571 34.8 166.449 34.8Z" fill="white"/>
</svg>
