<svg width="31" height="32" viewBox="0 0 31 32" fill="none" xmlns="http://www.w3.org/2000/svg">
<g filter="url(#filter0_d_15_252)">
<path d="M15.5 0C9.14805 0 4 5.37188 4 12C4 17.0859 7.03223 21.4266 11.3088 23.175C11.21 22.2234 11.1156 20.7703 11.3492 19.7344C11.5604 18.7969 12.6969 13.7719 12.6969 13.7719C12.6969 13.7719 12.351 13.0547 12.351 11.9906C12.351 10.3219 13.2764 9.075 14.4309 9.075C15.4102 9.075 15.8863 9.84375 15.8863 10.7672C15.8863 11.7984 15.2574 13.3359 14.934 14.7609C14.6645 15.9562 15.509 16.9313 16.6365 16.9313C18.6805 16.9313 20.2527 14.6812 20.2527 11.4375C20.2527 8.56406 18.2762 6.55313 15.4506 6.55313C12.1803 6.55313 10.2576 9.1125 10.2576 11.7609C10.2576 12.7922 10.6395 13.8984 11.1156 14.4984C11.21 14.6156 11.2234 14.7234 11.1965 14.8406C11.1111 15.2203 10.9135 16.0359 10.8775 16.2C10.8281 16.4203 10.7113 16.4672 10.4912 16.3594C9.05371 15.6609 8.15527 13.4719 8.15527 11.7094C8.15527 7.92188 10.7922 4.44844 15.7516 4.44844C19.7406 4.44844 22.8402 7.41563 22.8402 11.3813C22.8402 15.5156 20.3426 18.8438 16.8746 18.8438C15.7111 18.8438 14.615 18.2109 14.2377 17.4656C14.2377 17.4656 13.6627 19.7578 13.5234 20.3203C13.2629 21.3609 12.5621 22.6688 12.0949 23.4656C13.173 23.8125 14.3141 24 15.5 24C21.852 24 27 18.6281 27 12C27 5.37188 21.852 0 15.5 0Z" fill="white"/>
</g>
<defs>
<filter id="filter0_d_15_252" x="0" y="0" width="31" height="32" filterUnits="userSpaceOnUse" color-interpolation-filters="sRGB">
<feFlood flood-opacity="0" result="BackgroundImageFix"/>
<feColorMatrix in="SourceAlpha" type="matrix" values="0 0 0 0 0 0 0 0 0 0 0 0 0 0 0 0 0 0 127 0" result="hardAlpha"/>
<feOffset dy="4"/>
<feGaussianBlur stdDeviation="2"/>
<feComposite in2="hardAlpha" operator="out"/>
<feColorMatrix type="matrix" values="0 0 0 0 0 0 0 0 0 0 0 0 0 0 0 0 0 0 0.25 0"/>
<feBlend mode="normal" in2="BackgroundImageFix" result="effect1_dropShadow_15_252"/>
<feBlend mode="normal" in="SourceGraphic" in2="effect1_dropShadow_15_252" result="shape"/>
</filter>
</defs>
</svg>
