<svg width="340" height="298" viewBox="0 0 340 298" fill="none" xmlns="http://www.w3.org/2000/svg">
<path d="M94.8414 91.797C113.256 81.0686 98.7583 56.1838 80.3436 66.9122L22.6109 100.547L45.1631 139.257L61.7529 129.592L53.6986 115.767L94.8414 91.797ZM47.2551 104.707L45.6442 101.942L84.5198 79.293C86.2341 78.2943 87.9002 81.027 86.1307 82.058L47.2551 104.707Z" fill="#FA5D0A"/>
<path d="M154.182 247.345L224.222 239.12L203.15 275.617L228.092 290.017L261.692 231.821L231.679 214.493L162.806 222.616L183.542 186.701L158.6 172.301L125 230.497L154.182 247.345Z" fill="#FA5D0A"/>
<path d="M93.891 242.9C118.478 229.037 144.892 200.484 132.185 178.667C119.631 156.539 81.828 165.174 57.411 179.714C32.61 193.59 6.39686 221.915 19.2831 243.851C31.824 265.764 69.5923 257.261 93.891 242.9ZM48.7973 226.811C43.0373 216.834 52.5226 205.039 67.155 196.591C81.7874 188.143 96.911 185.73 102.671 195.707C108.431 205.684 98.7794 217.574 84.147 226.022C69.5146 234.47 54.5573 236.788 48.7973 226.811Z" fill="#FA5D0A"/>
<path d="M106.286 127.029L87.2555 124.484L86.195 132.413L54.858 128.222C33.7341 125.397 29.9163 153.943 51.0402 156.768L82.3772 160.959L81.3167 168.888L100.347 171.434L101.408 163.504L132.745 167.695C153.869 170.52 157.686 141.975 136.563 139.149L105.226 134.958L106.286 127.029ZM84.4982 145.1L84.074 148.272L55.9722 144.514C53.3079 144.157 53.7956 140.994 56.3964 141.342L84.4982 145.1ZM103.529 147.645L131.631 151.404C134.231 151.752 133.871 154.932 131.206 154.576L103.105 150.817L103.529 147.645Z" fill="#FA5D0A"/>
<path d="M176.935 208.562L190.511 222.139L222.19 190.46L180.329 148.6C164.218 164.71 155.665 173.535 141.365 154.89L132.314 163.941C146.75 182.993 162.906 188.65 182.592 168.964L199.562 185.935L176.935 208.562Z" fill="#FA5D0A"/>
<path d="M75.6053 116.695L94.2436 138.651L145.474 95.1613L65.3289 0.751765L14.0989 44.2412L32.7372 66.1969L69.33 35.133L112.198 85.6312L75.6053 116.695Z" fill="#FA5D0A"/>
<path d="M295.456 257.92C314.272 258.112 339.04 250.432 338.976 233.6C339.104 216.64 314.4 209.024 295.456 209.28C276.512 209.024 251.936 216.64 252.064 233.6C252 250.432 276.64 258.112 295.456 257.92ZM274.784 233.6C274.784 225.92 284.192 222.272 295.456 222.272C306.72 222.272 316.256 225.92 316.256 233.6C316.256 241.28 306.72 244.928 295.456 244.928C284.192 244.928 274.784 241.28 274.784 233.6Z" fill="#FA5D0A"/>
<rect width="66.7394" height="14.8366" transform="matrix(0.697116 0.716959 0.716959 -0.697116 185 139.194)" fill="#FA5D0A"/>
</svg>
