<svg width="1544" height="1544" viewBox="0 0 1544 1544" fill="none" xmlns="http://www.w3.org/2000/svg">
<g clip-path="url(#clip0_53_744)">
<path fill-rule="evenodd" clip-rule="evenodd" d="M616.657 522.858L621.385 465.101L785.014 478.45L789.066 428.945C779.121 447.04 757.585 459.158 728.128 451.393L570.655 409.881L557.181 460.94L608.973 528.729L616.657 522.858ZM666.253 567.598L648.838 580.906L714.48 666.823C743.673 705.037 719.526 744.078 687.007 749.582C692.194 795.538 731.525 795.531 795.553 795.52L797.455 795.52L797.43 998.003L659.499 998.022L762.243 1079.08L784.414 1161.87C827.195 1144.85 890.215 1180.77 929.079 1220.7C975.509 1265.89 1016.83 1344.05 975.493 1384.77C934.933 1425.64 856.462 1384.32 811.425 1338.35C775.321 1302.98 742.275 1247.17 749.563 1205.19L570.885 1253.09L545.402 1157.95L684.641 1120.62L495.374 971.143L465.559 859.822L655.777 808.83C643.953 789.438 640.162 763.925 642.388 733.778C640.265 731.632 638.197 729.256 636.198 726.64L570.556 640.723L565.623 644.492C599.571 674.818 619.358 711.802 608.304 751.826C586.259 835.327 453.318 840.518 360.329 814.595C266.832 790.573 154.932 719.809 177.61 636.477C199.509 552.255 331.413 547.129 424.952 573.539C453.018 580.651 482.689 591.903 509.905 606.415L508.948 605.161L530.692 588.546L465.05 502.629C433.571 461.428 464.103 419.265 500.28 419.211L532.293 297.889L753.262 356.141C774.569 361.757 787.138 374.381 792.357 388.748L803.499 252.637L639.87 239.288L647.907 141.108L876.988 159.797L842.43 581.971L666.253 567.598ZM644.207 932.354L644.197 985.951L576.045 932.182L713.063 895.452L698.812 842.244C713.698 847.486 731.851 850.253 753.67 850.25L753.656 932.338L644.207 932.354ZM584.619 356.963L581.826 367.547L730.621 406.771C737.394 408.556 739.975 397.917 733.413 396.187L584.619 356.963ZM290.2 666.631C300.404 628.569 351.872 622.976 407.691 637.925C463.51 652.875 505.919 683.61 495.715 721.672C485.511 759.734 433.411 765.155 377.592 750.206C321.773 735.256 279.996 704.693 290.2 666.631ZM565.483 561.961L574.182 555.314L515.316 478.268C509.868 471.137 501.038 477.608 506.617 484.915L565.483 561.961ZM672.91 684.54L614.046 607.491L605.348 614.138L664.21 691.185C669.793 698.491 678.356 691.669 672.91 684.54ZM820.263 1229.54C838.84 1210.96 870.414 1224.89 897.653 1252.13C924.892 1279.36 939.128 1311.25 920.551 1329.83C901.974 1348.4 870.09 1334.17 842.851 1306.93C815.612 1279.69 801.686 1248.11 820.263 1229.54ZM831.503 784.063L828.268 1012.31L879.01 1013.02L882.244 784.768L831.503 784.063Z" fill="#FA5D0A" fill-opacity="0.7"/>
<g filter="url(#filter0_f_53_744)">
<path fill-rule="evenodd" clip-rule="evenodd" d="M616.657 522.858L621.385 465.101L785.014 478.45L789.066 428.945C779.121 447.04 757.585 459.158 728.128 451.393L570.655 409.881L557.181 460.94L608.973 528.729L616.657 522.858ZM666.253 567.598L648.838 580.906L714.48 666.823C743.673 705.037 719.526 744.078 687.007 749.582C692.194 795.538 731.525 795.531 795.553 795.52L797.455 795.52L797.43 998.003L659.499 998.022L762.243 1079.08L784.414 1161.87C827.195 1144.85 890.215 1180.77 929.079 1220.7C975.509 1265.89 1016.83 1344.05 975.493 1384.77C934.933 1425.64 856.462 1384.32 811.425 1338.35C775.321 1302.98 742.275 1247.17 749.563 1205.19L570.885 1253.09L545.402 1157.95L684.641 1120.62L495.374 971.143L465.559 859.822L655.777 808.83C643.953 789.438 640.162 763.925 642.388 733.778C640.265 731.632 638.197 729.256 636.198 726.64L570.556 640.723L565.623 644.492C599.571 674.818 619.358 711.802 608.304 751.826C586.259 835.327 453.318 840.518 360.329 814.595C266.832 790.573 154.932 719.809 177.61 636.477C199.509 552.255 331.413 547.129 424.952 573.539C453.018 580.651 482.689 591.903 509.905 606.415L508.948 605.161L530.692 588.546L465.05 502.629C433.571 461.428 464.103 419.265 500.28 419.211L532.293 297.889L753.262 356.141C774.569 361.757 787.138 374.381 792.357 388.748L803.499 252.637L639.87 239.288L647.907 141.108L876.988 159.797L842.43 581.971L666.253 567.598ZM644.207 932.354L644.197 985.951L576.045 932.182L713.063 895.452L698.812 842.244C713.698 847.486 731.851 850.253 753.67 850.25L753.656 932.338L644.207 932.354ZM584.619 356.963L581.826 367.547L730.621 406.771C737.394 408.556 739.975 397.917 733.413 396.187L584.619 356.963ZM290.2 666.631C300.404 628.569 351.872 622.976 407.691 637.925C463.51 652.875 505.919 683.61 495.715 721.672C485.511 759.734 433.411 765.155 377.592 750.206C321.773 735.256 279.996 704.693 290.2 666.631ZM565.483 561.961L574.182 555.314L515.316 478.268C509.868 471.137 501.038 477.608 506.617 484.915L565.483 561.961ZM672.91 684.54L614.046 607.491L605.348 614.138L664.21 691.185C669.793 698.491 678.356 691.669 672.91 684.54ZM820.263 1229.54C838.84 1210.96 870.414 1224.89 897.653 1252.13C924.892 1279.36 939.128 1311.25 920.551 1329.83C901.974 1348.4 870.09 1334.17 842.851 1306.93C815.612 1279.69 801.686 1248.11 820.263 1229.54ZM831.503 784.063L828.268 1012.31L879.01 1013.02L882.244 784.768L831.503 784.063Z" fill="#FA5D0A" fill-opacity="0.7"/>
</g>
</g>
<defs>
<filter id="filter0_f_53_744" x="114.646" y="81.1084" width="937.846" height="1380.37" filterUnits="userSpaceOnUse" color-interpolation-filters="sRGB">
<feFlood flood-opacity="0" result="BackgroundImageFix"/>
<feBlend mode="normal" in="SourceGraphic" in2="BackgroundImageFix" result="shape"/>
<feGaussianBlur stdDeviation="30" result="effect1_foregroundBlur_53_744"/>
</filter>
<clipPath id="clip0_53_744">
<rect width="1162.76" height="1019.4" fill="white" transform="translate(720.827) rotate(45)"/>
</clipPath>
</defs>
</svg>
