<svg width="23" height="23" viewBox="0 0 23 23" fill="none" xmlns="http://www.w3.org/2000/svg">
<path fill-rule="evenodd" clip-rule="evenodd" d="M1.61677 1.61677C0 3.23354 0 5.83568 0 11.04V11.96C0 17.1643 0 19.7664 1.61677 21.3832C3.23354 23 5.83568 23 11.04 23H11.96C17.1643 23 19.7664 23 21.3832 21.3832C23 19.7664 23 17.1643 23 11.96V11.04C23 5.83568 23 3.23354 21.3832 1.61677C19.7664 0 17.1643 0 11.96 0H11.04C5.83568 0 3.23354 0 1.61677 1.61677ZM3.88131 6.99588C4.00589 12.9759 6.99588 16.5696 12.238 16.5696H12.5351V13.1484C14.4613 13.34 15.9179 14.7488 16.5025 16.5696H19.2242C18.4767 13.848 16.512 12.3434 15.2854 11.7684C16.512 11.0592 18.237 9.33421 18.6491 6.99588H16.1766C15.6399 8.89338 14.0493 10.6184 12.5351 10.7813V6.99588H10.0625V13.6275C8.52917 13.2442 6.59338 11.385 6.50713 6.99588H3.88131Z" fill="white"/>
</svg>
